<svg width="285" height="67" viewBox="0 0 285 67" fill="none" xmlns="http://www.w3.org/2000/svg">
<path d="M3.84093 32.4259H15.8593C18.9569 32.4259 21.5588 34.9614 21.5588 38.1006C21.5588 38.7043 21.5588 40.1532 21.5588 40.8776C21.5588 44.0168 18.9569 46.5523 15.8593 46.5523H3.84093H0C0 39.0666 0 30.6149 0 23.1291H20.072V26.872H3.84093V32.4259ZM3.84093 36.1688V42.6887H15.8593C16.8505 42.6887 17.7179 41.8435 17.7179 40.7569C17.7179 40.0325 17.7179 38.7043 17.7179 37.9799C17.7179 36.8933 16.8505 36.0481 15.8593 36.0481L3.84093 36.1688Z" fill="#4F4949"/>
<path d="M57.3662 37.014H69.3846C72.4821 37.014 75.0841 34.4785 75.0841 31.3393C75.0841 30.7356 75.0841 29.2868 75.0841 28.5623C75.0841 25.4231 72.4821 22.8876 69.3846 22.8876H57.3662H53.5253C53.5253 30.4942 53.5253 38.7044 53.5253 46.3109H57.3662C57.3662 43.2924 57.3662 40.1532 57.3662 37.014ZM57.3662 33.2711V26.7513H69.3846C70.3758 26.7513 71.2431 27.5964 71.2431 28.6831C71.2431 29.4075 71.2431 30.7356 71.2431 31.4601C71.2431 32.5467 70.3758 33.3919 69.3846 33.3919L57.3662 33.2711Z" fill="#4F4949"/>
<path fill-rule="evenodd" clip-rule="evenodd" d="M85.2439 23.0084H100.112V26.7513H85.2439C84.2527 26.7513 83.3854 27.5964 83.3854 28.6831C83.3854 31.5808 83.3854 37.9799 83.3854 40.8776C83.3854 41.9643 84.2527 42.8095 85.2439 42.8095H100.112V46.5523C94.4126 46.5523 90.9434 46.5523 85.2439 46.5523C82.1464 46.5523 79.5445 44.0168 79.5445 40.8776C79.5445 33.0296 79.5445 36.5311 79.5445 28.6831C79.5445 25.5439 82.0225 23.0084 85.2439 23.0084Z" fill="#4F4949"/>
<path d="M36.7986 27.2342L41.1352 36.2896H32.3382L36.7986 27.2342ZM30.4797 39.9117H42.9937L45.8434 46.4316H50.056L38.9049 23.0084C37.4181 23.0084 36.0552 23.0084 34.5684 23.0084L23.4173 46.4316H27.6299L30.4797 39.9117Z" fill="#4F4949"/>
<path d="M67.5261 58.264H72.606C74.0929 58.264 75.3319 57.0566 75.3319 55.6078C75.3319 55.3663 75.3319 54.1589 75.3319 53.9174C75.3319 52.4686 74.0929 51.2612 72.606 51.2612H67.5261H65.2959C65.2959 54.7626 65.2959 58.8677 65.2959 62.3691H67.5261C67.5261 61.041 67.5261 59.7129 67.5261 58.264ZM67.5261 56.2114V53.5552H72.1104C72.606 53.5552 72.9777 53.9174 72.9777 54.4004C72.9777 54.7626 72.9777 55.0041 72.9777 55.2455C72.9777 55.7285 72.606 56.0907 72.1104 56.0907H67.5261V56.2114Z" fill="#4F4949"/>
<path fill-rule="evenodd" clip-rule="evenodd" d="M53.5253 51.3819H63.1896V53.5552H55.7555V62.4898H53.5253V51.3819Z" fill="#4F4949"/>
<path fill-rule="evenodd" clip-rule="evenodd" d="M78.925 62.4898H81.2791C82.5181 60.4373 87.8459 51.5026 87.8459 51.5026H85.3679L82.0225 57.4188L78.4294 51.5026H75.9514L80.6596 59.4714C80.4118 59.8336 79.4206 61.7654 78.925 62.4898Z" fill="#4F4949"/>
<path fill-rule="evenodd" clip-rule="evenodd" d="M89.0849 51.3819V62.4898H91.1912V53.5552H97.8819V60.6788V62.4898H100.112V51.3819H89.0849Z" fill="#4F4949"/>
<path fill-rule="evenodd" clip-rule="evenodd" d="M130.744 61.8855C130.979 62.0108 130.979 62.2614 130.744 62.3867L129.805 62.8879C129.57 63.0132 129.1 63.0132 128.866 62.8879L115.95 55.9961C115.715 55.8708 115.481 55.4949 115.481 55.2443V50.7333C115.481 50.4827 115.715 50.3574 115.833 50.4827L130.744 61.8855Z" fill="#4F4949"/>
<path fill-rule="evenodd" clip-rule="evenodd" d="M126.869 15.1466C126.635 15.2719 126.4 15.6478 126.282 15.8984L120.06 50.1068C120.06 50.3574 120.177 50.7333 120.412 50.9839L123.112 53.1141C123.347 53.2394 123.582 53.2394 123.817 52.9888L150.704 0.36056C150.822 0.109949 150.704 -0.0153564 150.469 0.109949L126.869 15.1466Z" fill="url(#paint0_linear)"/>
<path fill-rule="evenodd" clip-rule="evenodd" d="M115.95 22.6649C115.715 22.7902 115.598 23.1661 115.598 23.542V46.7235C115.598 46.9741 115.833 47.35 115.95 47.6006L117.829 48.979C118.064 49.1043 118.298 49.1043 118.298 48.7284L122.995 17.778C122.995 17.5274 122.877 17.4021 122.643 17.5274L115.95 22.6649Z" fill="url(#paint1_linear)"/>
<path fill-rule="evenodd" clip-rule="evenodd" d="M125.578 54.3671C125.461 54.6177 125.461 54.9937 125.695 55.119L128.513 57.2492C128.748 57.3745 129.1 57.3745 129.335 57.2492L148.473 39.957C148.708 39.7064 148.826 39.3305 148.708 39.0799L144.012 21.7878C143.894 21.5371 143.777 21.5371 143.659 21.7878L125.578 54.3671Z" fill="url(#paint2_linear)"/>
<path fill-rule="evenodd" clip-rule="evenodd" d="M147.769 45.3452C147.651 45.0946 147.417 44.9692 147.182 45.2199L130.979 58.6275C130.744 58.7528 130.744 59.1287 130.979 59.2541L132.858 60.7577C133.092 60.883 133.445 61.0083 133.679 60.883L148.121 54.3671C148.356 54.2418 148.473 53.8659 148.356 53.6153L147.769 45.3452Z" fill="url(#paint3_linear)"/>
<path d="M182.46 23.6L182.66 21.5H182.56L181.8 23.42L178.16 29.74H177.66L173.8 23.4L173.08 21.5H172.98L173.26 23.58V33H171.7V19H172.94L177.32 26.16L177.98 27.72H178.02L178.64 26.12L182.82 19H184.12V33H182.46V23.6ZM186.8 28C186.8 26.3067 187.174 25.0133 187.92 24.12C188.68 23.2133 189.767 22.76 191.18 22.76C191.927 22.76 192.574 22.8867 193.12 23.14C193.68 23.38 194.14 23.7333 194.5 24.2C194.86 24.6533 195.127 25.2067 195.3 25.86C195.474 26.5 195.56 27.2133 195.56 28C195.56 29.6933 195.18 30.9933 194.42 31.9C193.674 32.7933 192.594 33.24 191.18 33.24C190.434 33.24 189.78 33.12 189.22 32.88C188.674 32.6267 188.22 32.2733 187.86 31.82C187.5 31.3533 187.234 30.8 187.06 30.16C186.887 29.5067 186.8 28.7867 186.8 28ZM188.46 28C188.46 28.5067 188.507 28.9933 188.6 29.46C188.707 29.9267 188.867 30.3333 189.08 30.68C189.294 31.0267 189.574 31.3067 189.92 31.52C190.267 31.7333 190.687 31.84 191.18 31.84C192.994 31.8533 193.9 30.5733 193.9 28C193.9 27.48 193.847 26.9867 193.74 26.52C193.647 26.0533 193.494 25.6467 193.28 25.3C193.067 24.9533 192.787 24.68 192.44 24.48C192.094 24.2667 191.674 24.16 191.18 24.16C189.367 24.1467 188.46 25.4267 188.46 28ZM204.203 28.58H199.683V33H198.083V23H199.683V27.18H204.203V23H205.803V33H204.203V28.58ZM215.124 27.08L215.184 25.84H215.124L214.304 27.12L209.804 33H208.884V23H210.484V29.1L210.424 30.28H210.504L211.284 29.04L215.784 23H216.724V33H215.124V27.08ZM226.182 24.4H223.042V33H221.442V24.4H218.302V23H226.182V24.4ZM226.898 28C226.898 26.3067 227.271 25.0133 228.018 24.12C228.778 23.2133 229.865 22.76 231.278 22.76C232.025 22.76 232.671 22.8867 233.218 23.14C233.778 23.38 234.238 23.7333 234.598 24.2C234.958 24.6533 235.225 25.2067 235.398 25.86C235.571 26.5 235.658 27.2133 235.658 28C235.658 29.6933 235.278 30.9933 234.518 31.9C233.771 32.7933 232.691 33.24 231.278 33.24C230.531 33.24 229.878 33.12 229.318 32.88C228.771 32.6267 228.318 32.2733 227.958 31.82C227.598 31.3533 227.331 30.8 227.158 30.16C226.985 29.5067 226.898 28.7867 226.898 28ZM228.558 28C228.558 28.5067 228.605 28.9933 228.698 29.46C228.805 29.9267 228.965 30.3333 229.178 30.68C229.391 31.0267 229.671 31.3067 230.018 31.52C230.365 31.7333 230.785 31.84 231.278 31.84C233.091 31.8533 233.998 30.5733 233.998 28C233.998 27.48 233.945 26.9867 233.838 26.52C233.745 26.0533 233.591 25.6467 233.378 25.3C233.165 24.9533 232.885 24.68 232.538 24.48C232.191 24.2667 231.771 24.16 231.278 24.16C229.465 24.1467 228.558 25.4267 228.558 28ZM238.181 23H239.281L239.581 24.2H239.661C239.967 23.7333 240.361 23.38 240.841 23.14C241.334 22.8867 241.894 22.76 242.521 22.76C243.854 22.76 244.847 23.1533 245.501 23.94C246.154 24.7267 246.481 26.0133 246.481 27.8C246.481 28.64 246.367 29.4 246.141 30.08C245.927 30.7467 245.621 31.3133 245.221 31.78C244.821 32.2467 244.334 32.6067 243.761 32.86C243.201 33.1133 242.574 33.24 241.881 33.24C241.387 33.24 240.994 33.2067 240.701 33.14C240.421 33.0867 240.114 32.9867 239.781 32.84V37H238.181V23ZM242.221 24.16C241.541 24.16 241.001 24.34 240.601 24.7C240.214 25.0467 239.941 25.58 239.781 26.3V31.26C240.021 31.4467 240.294 31.5933 240.601 31.7C240.907 31.7933 241.314 31.84 241.821 31.84C242.741 31.84 243.467 31.5 244.001 30.82C244.547 30.1267 244.821 29.1133 244.821 27.78C244.821 27.2333 244.774 26.74 244.681 26.3C244.587 25.8467 244.434 25.4667 244.221 25.16C244.021 24.84 243.754 24.5933 243.421 24.42C243.101 24.2467 242.701 24.16 242.221 24.16ZM255.241 27.08L255.301 25.84H255.241L254.421 27.12L249.921 33H249.001V23H250.601V29.1L250.541 30.28H250.621L251.401 29.04L255.901 23H256.841V33H255.241V27.08ZM266.039 28.58H261.519V33H259.919V23H261.519V27.18H266.039V23H267.639V33H266.039V28.58ZM276.56 24.4H272.32V33H270.72V23H276.56V24.4ZM171.12 52C171.12 49.6667 171.613 47.88 172.6 46.64C173.587 45.3867 174.993 44.76 176.82 44.76C177.807 44.76 178.66 44.9333 179.38 45.28C180.1 45.6267 180.693 46.12 181.16 46.76C181.64 47.3867 181.993 48.1467 182.22 49.04C182.447 49.92 182.56 50.9067 182.56 52C182.56 54.3333 182.06 56.1267 181.06 57.38C180.073 58.62 178.66 59.24 176.82 59.24C175.847 59.24 175 59.0667 174.28 58.72C173.573 58.3733 172.98 57.8867 172.5 57.26C172.033 56.62 171.687 55.86 171.46 54.98C171.233 54.0867 171.12 53.0933 171.12 52ZM172.88 52C172.88 52.7733 172.953 53.5067 173.1 54.2C173.26 54.8933 173.5 55.5067 173.82 56.04C174.14 56.56 174.547 56.98 175.04 57.3C175.547 57.6067 176.14 57.76 176.82 57.76C178.06 57.76 179.033 57.2933 179.74 56.36C180.447 55.4133 180.8 53.96 180.8 52C180.8 51.24 180.72 50.5133 180.56 49.82C180.413 49.1133 180.173 48.5 179.84 47.98C179.52 47.4467 179.107 47.0267 178.6 46.72C178.107 46.4 177.513 46.24 176.82 46.24C175.593 46.24 174.627 46.7133 173.92 47.66C173.227 48.5933 172.88 50.04 172.88 52ZM186.132 50.78C186.572 50.14 187.059 49.6933 187.592 49.44C188.125 49.1733 188.792 49.04 189.592 49.04C190.819 49.04 191.759 49.44 192.412 50.24C193.079 51.04 193.412 52.22 193.412 53.78C193.412 55.58 193.025 56.94 192.252 57.86C191.492 58.78 190.425 59.24 189.052 59.24C187.585 59.24 186.485 58.7333 185.752 57.72C185.019 56.7067 184.652 55.1133 184.652 52.94C184.652 51.7933 184.705 50.8133 184.812 50C184.932 49.1867 185.099 48.5 185.312 47.94C185.539 47.38 185.805 46.9333 186.112 46.6C186.432 46.2667 186.785 46.0067 187.172 45.82C187.572 45.62 188.005 45.48 188.472 45.4C188.939 45.32 189.439 45.2533 189.972 45.2C190.665 45.1333 191.205 45.06 191.592 44.98C191.992 44.8867 192.312 44.7267 192.552 44.5L192.732 45.94C192.599 46.06 192.452 46.16 192.292 46.24C192.132 46.32 191.939 46.3867 191.712 46.44C191.485 46.4933 191.212 46.54 190.892 46.58C190.585 46.62 190.225 46.6533 189.812 46.68C189.239 46.72 188.732 46.7933 188.292 46.9C187.865 46.9933 187.492 47.1867 187.172 47.48C186.865 47.76 186.619 48.1667 186.432 48.7C186.259 49.22 186.139 49.9133 186.072 50.78H186.132ZM186.312 54.02C186.312 54.5267 186.365 55.0133 186.472 55.48C186.579 55.9467 186.739 56.36 186.952 56.72C187.179 57.0667 187.465 57.34 187.812 57.54C188.159 57.74 188.565 57.84 189.032 57.84C189.952 57.84 190.632 57.5133 191.072 56.86C191.525 56.1933 191.752 55.2133 191.752 53.92C191.752 53.4133 191.705 52.9467 191.612 52.52C191.519 52.0933 191.372 51.7267 191.172 51.42C190.972 51.1 190.719 50.86 190.412 50.7C190.105 50.5267 189.739 50.44 189.312 50.44C188.272 50.4267 187.512 50.7333 187.032 51.36C186.552 51.9733 186.312 52.86 186.312 54.02ZM195.935 49H197.035L197.335 50.2H197.415C197.721 49.7333 198.115 49.38 198.595 49.14C199.088 48.8867 199.648 48.76 200.275 48.76C201.608 48.76 202.601 49.1533 203.255 49.94C203.908 50.7267 204.235 52.0133 204.235 53.8C204.235 54.64 204.121 55.4 203.895 56.08C203.681 56.7467 203.375 57.3133 202.975 57.78C202.575 58.2467 202.088 58.6067 201.515 58.86C200.955 59.1133 200.328 59.24 199.635 59.24C199.141 59.24 198.748 59.2067 198.455 59.14C198.175 59.0867 197.868 58.9867 197.535 58.84V63H195.935V49ZM199.975 50.16C199.295 50.16 198.755 50.34 198.355 50.7C197.968 51.0467 197.695 51.58 197.535 52.3V57.26C197.775 57.4467 198.048 57.5933 198.355 57.7C198.661 57.7933 199.068 57.84 199.575 57.84C200.495 57.84 201.221 57.5 201.755 56.82C202.301 56.1267 202.575 55.1133 202.575 53.78C202.575 53.2333 202.528 52.74 202.435 52.3C202.341 51.8467 202.188 51.4667 201.975 51.16C201.775 50.84 201.508 50.5933 201.175 50.42C200.855 50.2467 200.455 50.16 199.975 50.16ZM206.595 49.74C207.102 49.4333 207.688 49.2067 208.355 49.06C209.035 48.9133 209.742 48.84 210.475 48.84C211.168 48.84 211.722 48.9333 212.135 49.12C212.562 49.3067 212.882 49.5533 213.095 49.86C213.322 50.1533 213.468 50.48 213.535 50.84C213.615 51.2 213.655 51.56 213.655 51.92C213.655 52.72 213.635 53.5 213.595 54.26C213.555 55.02 213.535 55.74 213.535 56.42C213.535 56.9133 213.555 57.38 213.595 57.82C213.635 58.26 213.708 58.6667 213.815 59.04H212.635L212.215 57.64H212.115C211.995 57.8267 211.842 58.0133 211.655 58.2C211.482 58.3733 211.268 58.5333 211.015 58.68C210.762 58.8133 210.468 58.9267 210.135 59.02C209.802 59.1133 209.422 59.16 208.995 59.16C208.568 59.16 208.168 59.0933 207.795 58.96C207.435 58.8267 207.122 58.64 206.855 58.4C206.588 58.1467 206.375 57.8467 206.215 57.5C206.068 57.1533 205.995 56.76 205.995 56.32C205.995 55.7333 206.115 55.2467 206.355 54.86C206.595 54.46 206.928 54.1467 207.355 53.92C207.795 53.68 208.315 53.5133 208.915 53.42C209.528 53.3133 210.202 53.26 210.935 53.26C211.122 53.26 211.302 53.26 211.475 53.26C211.662 53.26 211.848 53.2733 212.035 53.3C212.075 52.9 212.095 52.54 212.095 52.22C212.095 51.4867 211.948 50.9733 211.655 50.68C211.362 50.3867 210.828 50.24 210.055 50.24C209.828 50.24 209.582 50.26 209.315 50.3C209.062 50.3267 208.795 50.3733 208.515 50.44C208.248 50.4933 207.988 50.5667 207.735 50.66C207.495 50.74 207.282 50.8333 207.095 50.94L206.595 49.74ZM209.435 57.76C209.808 57.76 210.142 57.7133 210.435 57.62C210.728 57.5133 210.982 57.3867 211.195 57.24C211.408 57.08 211.582 56.9067 211.715 56.72C211.862 56.5333 211.968 56.3533 212.035 56.18V54.52C211.848 54.5067 211.655 54.5 211.455 54.5C211.268 54.4867 211.082 54.48 210.895 54.48C210.482 54.48 210.075 54.5067 209.675 54.56C209.288 54.6 208.942 54.6867 208.635 54.82C208.342 54.94 208.102 55.1133 207.915 55.34C207.742 55.5533 207.655 55.8267 207.655 56.16C207.655 56.6267 207.822 57.0133 208.155 57.32C208.488 57.6133 208.915 57.76 209.435 57.76ZM217.637 54.54V53.24H219.037C219.277 53.24 219.51 53.2 219.737 53.12C219.977 53.04 220.19 52.9333 220.377 52.8C220.563 52.6533 220.71 52.4867 220.817 52.3C220.937 52.1 220.997 51.8933 220.997 51.68C220.997 51.16 220.817 50.7933 220.457 50.58C220.097 50.3667 219.557 50.26 218.837 50.26C218.317 50.26 217.837 50.34 217.397 50.5C216.97 50.66 216.637 50.8133 216.397 50.96L215.937 49.72C216.337 49.4933 216.803 49.2933 217.337 49.12C217.883 48.9467 218.53 48.86 219.277 48.86C221.49 48.86 222.597 49.68 222.597 51.32C222.597 51.7867 222.443 52.2467 222.137 52.7C221.843 53.14 221.417 53.4533 220.857 53.64V53.72C221.643 53.8667 222.19 54.1467 222.497 54.56C222.817 54.9733 222.977 55.52 222.977 56.2C222.977 56.6267 222.89 57.02 222.717 57.38C222.543 57.74 222.283 58.0533 221.937 58.32C221.59 58.5867 221.15 58.8 220.617 58.96C220.097 59.1067 219.49 59.18 218.797 59.18C218.117 59.18 217.55 59.12 217.097 59C216.657 58.88 216.257 58.7333 215.897 58.56L216.357 57.24C216.663 57.4133 217.03 57.5467 217.457 57.64C217.897 57.7333 218.37 57.78 218.877 57.78C219.69 57.78 220.31 57.64 220.737 57.36C221.163 57.08 221.377 56.6533 221.377 56.08C221.377 55.6 221.177 55.2267 220.777 54.96C220.377 54.68 219.717 54.54 218.797 54.54H217.637ZM224.945 54C224.945 52.3067 225.318 51.0133 226.065 50.12C226.825 49.2133 227.912 48.76 229.325 48.76C230.072 48.76 230.718 48.8867 231.265 49.14C231.825 49.38 232.285 49.7333 232.645 50.2C233.005 50.6533 233.272 51.2067 233.445 51.86C233.618 52.5 233.705 53.2133 233.705 54C233.705 55.6933 233.325 56.9933 232.565 57.9C231.818 58.7933 230.738 59.24 229.325 59.24C228.578 59.24 227.925 59.12 227.365 58.88C226.818 58.6267 226.365 58.2733 226.005 57.82C225.645 57.3533 225.378 56.8 225.205 56.16C225.032 55.5067 224.945 54.7867 224.945 54ZM226.605 54C226.605 54.5067 226.652 54.9933 226.745 55.46C226.852 55.9267 227.012 56.3333 227.225 56.68C227.438 57.0267 227.718 57.3067 228.065 57.52C228.412 57.7333 228.832 57.84 229.325 57.84C231.138 57.8533 232.045 56.5733 232.045 54C232.045 53.48 231.992 52.9867 231.885 52.52C231.792 52.0533 231.638 51.6467 231.425 51.3C231.212 50.9533 230.932 50.68 230.585 50.48C230.238 50.2667 229.818 50.16 229.325 50.16C227.512 50.1467 226.605 51.4267 226.605 54ZM236.228 49.02C236.694 48.9933 237.181 48.96 237.688 48.92C238.208 48.88 238.848 48.86 239.608 48.86C240.928 48.86 241.874 49.0667 242.448 49.48C243.021 49.88 243.308 50.4933 243.308 51.32C243.308 51.7867 243.168 52.2467 242.888 52.7C242.621 53.14 242.174 53.4667 241.548 53.68V53.76C242.334 53.9067 242.888 54.18 243.208 54.58C243.528 54.98 243.688 55.5133 243.688 56.18C243.688 57.22 243.314 57.9733 242.568 58.44C241.821 58.9067 240.701 59.14 239.208 59.14C238.648 59.14 238.128 59.12 237.648 59.08C237.168 59.0533 236.694 59.02 236.228 58.98V49.02ZM237.828 57.66C238.081 57.6867 238.328 57.7067 238.568 57.72C238.821 57.7333 239.114 57.74 239.448 57.74C240.341 57.74 241.001 57.6133 241.428 57.36C241.868 57.1067 242.088 56.6733 242.088 56.06C242.088 55.58 241.901 55.1933 241.528 54.9C241.168 54.5933 240.521 54.44 239.588 54.44H237.828V57.66ZM239.788 53.22C240.028 53.22 240.261 53.18 240.488 53.1C240.714 53.02 240.914 52.9133 241.088 52.78C241.274 52.6333 241.421 52.4667 241.528 52.28C241.648 52.0933 241.708 51.8933 241.708 51.68C241.708 51.1467 241.548 50.78 241.228 50.58C240.908 50.3667 240.348 50.26 239.548 50.26C239.121 50.26 238.781 50.2667 238.528 50.28C238.288 50.2933 238.054 50.3067 237.828 50.32V53.22H239.788ZM246.048 49.74C246.555 49.4333 247.141 49.2067 247.808 49.06C248.488 48.9133 249.195 48.84 249.928 48.84C250.621 48.84 251.175 48.9333 251.588 49.12C252.015 49.3067 252.335 49.5533 252.548 49.86C252.775 50.1533 252.921 50.48 252.988 50.84C253.068 51.2 253.108 51.56 253.108 51.92C253.108 52.72 253.088 53.5 253.048 54.26C253.008 55.02 252.988 55.74 252.988 56.42C252.988 56.9133 253.008 57.38 253.048 57.82C253.088 58.26 253.161 58.6667 253.268 59.04H252.088L251.668 57.64H251.568C251.448 57.8267 251.295 58.0133 251.108 58.2C250.935 58.3733 250.721 58.5333 250.468 58.68C250.215 58.8133 249.921 58.9267 249.588 59.02C249.255 59.1133 248.875 59.16 248.448 59.16C248.021 59.16 247.621 59.0933 247.248 58.96C246.888 58.8267 246.575 58.64 246.308 58.4C246.041 58.1467 245.828 57.8467 245.668 57.5C245.521 57.1533 245.448 56.76 245.448 56.32C245.448 55.7333 245.568 55.2467 245.808 54.86C246.048 54.46 246.381 54.1467 246.808 53.92C247.248 53.68 247.768 53.5133 248.368 53.42C248.981 53.3133 249.655 53.26 250.388 53.26C250.575 53.26 250.755 53.26 250.928 53.26C251.115 53.26 251.301 53.2733 251.488 53.3C251.528 52.9 251.548 52.54 251.548 52.22C251.548 51.4867 251.401 50.9733 251.108 50.68C250.815 50.3867 250.281 50.24 249.508 50.24C249.281 50.24 249.035 50.26 248.768 50.3C248.515 50.3267 248.248 50.3733 247.968 50.44C247.701 50.4933 247.441 50.5667 247.188 50.66C246.948 50.74 246.735 50.8333 246.548 50.94L246.048 49.74ZM248.888 57.76C249.261 57.76 249.595 57.7133 249.888 57.62C250.181 57.5133 250.435 57.3867 250.648 57.24C250.861 57.08 251.035 56.9067 251.168 56.72C251.315 56.5333 251.421 56.3533 251.488 56.18V54.52C251.301 54.5067 251.108 54.5 250.908 54.5C250.721 54.4867 250.535 54.48 250.348 54.48C249.935 54.48 249.528 54.5067 249.128 54.56C248.741 54.6 248.395 54.6867 248.088 54.82C247.795 54.94 247.555 55.1133 247.368 55.34C247.195 55.5533 247.108 55.8267 247.108 56.16C247.108 56.6267 247.275 57.0133 247.608 57.32C247.941 57.6133 248.368 57.76 248.888 57.76ZM262.25 54.58H257.73V59H256.13V49H257.73V53.18H262.25V49H263.85V59H262.25V54.58ZM273.171 53.08L273.231 51.84H273.171L272.351 53.12L267.851 59H266.931V49H268.531V55.1L268.471 56.28H268.551L269.331 55.04L273.831 49H274.771V59H273.171V53.08ZM282.829 54.86L281.289 55.1L278.649 59H276.709L279.109 55.58L279.909 54.84C279.215 54.7333 278.622 54.4533 278.129 54C277.649 53.5467 277.409 52.9333 277.409 52.16C277.409 51.56 277.509 51.0467 277.709 50.62C277.922 50.1933 278.222 49.84 278.609 49.56C278.995 49.28 279.455 49.08 279.989 48.96C280.522 48.8267 281.122 48.76 281.789 48.76C282.282 48.76 282.742 48.7933 283.169 48.86C283.595 48.9267 284.015 49 284.429 49.08V59H282.829V54.86ZM282.829 50.36C282.655 50.2933 282.462 50.2467 282.249 50.22C282.035 50.18 281.849 50.16 281.689 50.16C280.835 50.16 280.182 50.3133 279.729 50.62C279.289 50.9267 279.069 51.4133 279.069 52.08C279.069 52.68 279.302 53.1467 279.769 53.48C280.249 53.8 280.875 53.96 281.649 53.96C281.662 53.96 281.682 53.96 281.709 53.96C281.735 53.96 281.789 53.96 281.869 53.96C281.949 53.96 282.062 53.96 282.209 53.96C282.355 53.9467 282.562 53.9333 282.829 53.92V50.36Z" fill="#363636"/>
<line x1="158.5" y1="3.99231" x2="159.469" y2="66.9928" stroke="black"/>
<defs>
<linearGradient id="paint0_linear" x1="135.772" y1="18.258" x2="127.778" y2="58.5854" gradientUnits="userSpaceOnUse">
<stop stop-color="#C32118"/>
<stop offset="1" stop-color="#B32318"/>
</linearGradient>
<linearGradient id="paint1_linear" x1="119.244" y1="49.6679" x2="120.194" y2="21.033" gradientUnits="userSpaceOnUse">
<stop stop-color="#6BB22D"/>
<stop offset="1" stop-color="#A6C714"/>
</linearGradient>
<linearGradient id="paint2_linear" x1="136.826" y1="51.119" x2="141.722" y2="23.2148" gradientUnits="userSpaceOnUse">
<stop stop-color="#F8C500"/>
<stop offset="1" stop-color="#FEDB00"/>
</linearGradient>
<linearGradient id="paint3_linear" x1="148.911" y1="46.5875" x2="136.116" y2="62.2514" gradientUnits="userSpaceOnUse">
<stop stop-color="#6CBDEB"/>
<stop offset="1" stop-color="#2DA1DB"/>
</linearGradient>
</defs>
</svg>

